<mxfile host="Electron" agent="Mozilla/5.0 (Windows NT 10.0; Win64; x64) AppleWebKit/537.36 (KHTML, like Gecko) draw.io/27.0.9 Chrome/134.0.6998.205 Electron/35.4.0 Safari/537.36" version="27.0.9">
  <diagram name="half_adder" id="Xt68iIy5fs0qKX0u9GCr">
    <mxGraphModel dx="679" dy="458" grid="1" gridSize="10" guides="1" tooltips="1" connect="1" arrows="1" fold="1" page="1" pageScale="1" pageWidth="827" pageHeight="1169" math="0" shadow="0">
      <root>
        <mxCell id="0" />
        <mxCell id="1" parent="0" />
        <mxCell id="AosMxWho9IahaJcilFQE-1" value="" style="edgeStyle=orthogonalEdgeStyle;rounded=0;orthogonalLoop=1;jettySize=auto;html=1;endArrow=none;endFill=0;" edge="1" parent="1" source="AosMxWho9IahaJcilFQE-2" target="AosMxWho9IahaJcilFQE-10">
          <mxGeometry relative="1" as="geometry" />
        </mxCell>
        <mxCell id="AosMxWho9IahaJcilFQE-2" value="" style="verticalLabelPosition=bottom;shadow=0;dashed=0;align=center;html=1;verticalAlign=top;shape=mxgraph.electrical.logic_gates.logic_gate;operation=and;" vertex="1" parent="1">
          <mxGeometry x="200" y="80" width="100" height="60" as="geometry" />
        </mxCell>
        <mxCell id="AosMxWho9IahaJcilFQE-3" value="" style="edgeStyle=orthogonalEdgeStyle;rounded=0;orthogonalLoop=1;jettySize=auto;html=1;endArrow=none;endFill=0;" edge="1" parent="1" source="AosMxWho9IahaJcilFQE-4" target="AosMxWho9IahaJcilFQE-11">
          <mxGeometry relative="1" as="geometry" />
        </mxCell>
        <mxCell id="AosMxWho9IahaJcilFQE-4" value="" style="verticalLabelPosition=bottom;shadow=0;dashed=0;align=center;html=1;verticalAlign=top;shape=mxgraph.electrical.logic_gates.logic_gate;operation=xor;" vertex="1" parent="1">
          <mxGeometry x="200" y="200" width="100" height="60" as="geometry" />
        </mxCell>
        <mxCell id="AosMxWho9IahaJcilFQE-5" value="" style="triangle;whiteSpace=wrap;html=1;rotation=-90;" vertex="1" parent="1">
          <mxGeometry x="230" y="120" width="20" height="20" as="geometry" />
        </mxCell>
        <mxCell id="AosMxWho9IahaJcilFQE-6" value="" style="endArrow=none;html=1;rounded=0;exitX=0.295;exitY=0.996;exitDx=0;exitDy=0;exitPerimeter=0;entryX=0.49;entryY=0.971;entryDx=0;entryDy=0;entryPerimeter=0;" edge="1" parent="1" source="AosMxWho9IahaJcilFQE-4" target="AosMxWho9IahaJcilFQE-4">
          <mxGeometry width="50" height="50" relative="1" as="geometry">
            <mxPoint x="220" y="220" as="sourcePoint" />
            <mxPoint x="300" y="190" as="targetPoint" />
            <Array as="points">
              <mxPoint x="240" y="240" />
            </Array>
          </mxGeometry>
        </mxCell>
        <mxCell id="AosMxWho9IahaJcilFQE-7" value="a" style="text;html=1;align=center;verticalAlign=middle;whiteSpace=wrap;rounded=0;fontSize=18;" vertex="1" parent="1">
          <mxGeometry x="80" y="80" width="30" height="30" as="geometry" />
        </mxCell>
        <mxCell id="AosMxWho9IahaJcilFQE-8" value="b" style="text;html=1;align=center;verticalAlign=middle;whiteSpace=wrap;rounded=0;fontSize=18;" vertex="1" parent="1">
          <mxGeometry x="80" y="110" width="30" height="30" as="geometry" />
        </mxCell>
        <mxCell id="AosMxWho9IahaJcilFQE-9" value="clk" style="text;html=1;align=center;verticalAlign=middle;whiteSpace=wrap;rounded=0;fontSize=18;" vertex="1" parent="1">
          <mxGeometry x="70" y="260" width="40" height="40" as="geometry" />
        </mxCell>
        <mxCell id="AosMxWho9IahaJcilFQE-10" value="c" style="text;html=1;align=center;verticalAlign=middle;whiteSpace=wrap;rounded=0;fontSize=18;" vertex="1" parent="1">
          <mxGeometry x="320" y="90" width="30" height="40" as="geometry" />
        </mxCell>
        <mxCell id="AosMxWho9IahaJcilFQE-11" value="s" style="text;html=1;align=center;verticalAlign=middle;whiteSpace=wrap;rounded=0;fontSize=18;" vertex="1" parent="1">
          <mxGeometry x="320" y="210" width="30" height="40" as="geometry" />
        </mxCell>
        <mxCell id="AosMxWho9IahaJcilFQE-12" value="" style="endArrow=none;html=1;rounded=0;entryX=0;entryY=0.25;entryDx=0;entryDy=0;entryPerimeter=0;" edge="1" parent="1" source="AosMxWho9IahaJcilFQE-24" target="AosMxWho9IahaJcilFQE-2">
          <mxGeometry width="50" height="50" relative="1" as="geometry">
            <mxPoint x="180" y="95" as="sourcePoint" />
            <mxPoint x="230" y="130" as="targetPoint" />
          </mxGeometry>
        </mxCell>
        <mxCell id="AosMxWho9IahaJcilFQE-13" value="" style="endArrow=none;html=1;rounded=0;entryX=0;entryY=0.75;entryDx=0;entryDy=0;entryPerimeter=0;" edge="1" parent="1" source="AosMxWho9IahaJcilFQE-50" target="AosMxWho9IahaJcilFQE-2">
          <mxGeometry width="50" height="50" relative="1" as="geometry">
            <mxPoint x="160" y="125" as="sourcePoint" />
            <mxPoint x="230" y="130" as="targetPoint" />
          </mxGeometry>
        </mxCell>
        <mxCell id="AosMxWho9IahaJcilFQE-14" value="" style="endArrow=none;html=1;rounded=0;entryX=0.397;entryY=1.002;entryDx=0;entryDy=0;entryPerimeter=0;" edge="1" parent="1" source="AosMxWho9IahaJcilFQE-51" target="AosMxWho9IahaJcilFQE-4">
          <mxGeometry width="50" height="50" relative="1" as="geometry">
            <mxPoint x="130" y="310" as="sourcePoint" />
            <mxPoint x="240" y="280" as="targetPoint" />
            <Array as="points">
              <mxPoint x="240" y="280" />
            </Array>
          </mxGeometry>
        </mxCell>
        <mxCell id="AosMxWho9IahaJcilFQE-15" value="" style="endArrow=none;html=1;rounded=0;entryDx=0;entryDy=0;entryPerimeter=0;exitX=1;exitY=0.5;exitDx=0;exitDy=0;" edge="1" parent="1" source="AosMxWho9IahaJcilFQE-24">
          <mxGeometry width="50" height="50" relative="1" as="geometry">
            <mxPoint x="110" y="95" as="sourcePoint" />
            <mxPoint x="180" y="95" as="targetPoint" />
          </mxGeometry>
        </mxCell>
        <mxCell id="AosMxWho9IahaJcilFQE-17" value="" style="endArrow=none;html=1;rounded=0;exitX=1;exitY=0.5;exitDx=0;exitDy=0;" edge="1" parent="1" source="AosMxWho9IahaJcilFQE-8" target="AosMxWho9IahaJcilFQE-50">
          <mxGeometry width="50" height="50" relative="1" as="geometry">
            <mxPoint x="110" y="125" as="sourcePoint" />
            <mxPoint x="160" y="125" as="targetPoint" />
          </mxGeometry>
        </mxCell>
        <mxCell id="AosMxWho9IahaJcilFQE-19" value="" style="endArrow=none;html=1;rounded=0;exitX=1;exitY=0.5;exitDx=0;exitDy=0;" edge="1" parent="1" source="AosMxWho9IahaJcilFQE-9" target="AosMxWho9IahaJcilFQE-51">
          <mxGeometry width="50" height="50" relative="1" as="geometry">
            <mxPoint x="110" y="310" as="sourcePoint" />
            <mxPoint x="130" y="310" as="targetPoint" />
            <Array as="points" />
          </mxGeometry>
        </mxCell>
        <mxCell id="AosMxWho9IahaJcilFQE-21" value="" style="endArrow=none;html=1;rounded=0;exitX=0;exitY=0.25;exitDx=0;exitDy=0;exitPerimeter=0;" edge="1" parent="1" source="AosMxWho9IahaJcilFQE-4" target="AosMxWho9IahaJcilFQE-24">
          <mxGeometry width="50" height="50" relative="1" as="geometry">
            <mxPoint x="180" y="230" as="sourcePoint" />
            <mxPoint x="180" y="95" as="targetPoint" />
            <Array as="points">
              <mxPoint x="180" y="215" />
            </Array>
          </mxGeometry>
        </mxCell>
        <mxCell id="AosMxWho9IahaJcilFQE-22" value="" style="endArrow=none;html=1;rounded=0;exitX=0;exitY=0.75;exitDx=0;exitDy=0;exitPerimeter=0;" edge="1" parent="1" source="AosMxWho9IahaJcilFQE-4" target="AosMxWho9IahaJcilFQE-50">
          <mxGeometry width="50" height="50" relative="1" as="geometry">
            <mxPoint x="180" y="230" as="sourcePoint" />
            <mxPoint x="160" y="125" as="targetPoint" />
            <Array as="points">
              <mxPoint x="160" y="245" />
            </Array>
          </mxGeometry>
        </mxCell>
        <mxCell id="AosMxWho9IahaJcilFQE-23" value="" style="endArrow=none;html=1;rounded=0;entryX=0;entryY=0.5;entryDx=0;entryDy=0;" edge="1" parent="1" source="AosMxWho9IahaJcilFQE-51" target="AosMxWho9IahaJcilFQE-5">
          <mxGeometry width="50" height="50" relative="1" as="geometry">
            <mxPoint x="130" y="310" as="sourcePoint" />
            <mxPoint x="230" y="180" as="targetPoint" />
            <Array as="points">
              <mxPoint x="140" y="170" />
              <mxPoint x="240" y="170" />
            </Array>
          </mxGeometry>
        </mxCell>
        <mxCell id="AosMxWho9IahaJcilFQE-25" value="" style="endArrow=none;html=1;rounded=0;entryDx=0;entryDy=0;entryPerimeter=0;exitX=1;exitY=0.5;exitDx=0;exitDy=0;" edge="1" parent="1" source="AosMxWho9IahaJcilFQE-7" target="AosMxWho9IahaJcilFQE-24">
          <mxGeometry width="50" height="50" relative="1" as="geometry">
            <mxPoint x="110" y="95" as="sourcePoint" />
            <mxPoint x="180" y="95" as="targetPoint" />
          </mxGeometry>
        </mxCell>
        <mxCell id="AosMxWho9IahaJcilFQE-24" value="S" style="ellipse;whiteSpace=wrap;html=1;aspect=fixed;" vertex="1" parent="1">
          <mxGeometry x="170" y="85" width="20" height="20" as="geometry" />
        </mxCell>
        <mxCell id="AosMxWho9IahaJcilFQE-50" value="S" style="ellipse;whiteSpace=wrap;html=1;aspect=fixed;" vertex="1" parent="1">
          <mxGeometry x="150" y="115" width="20" height="20" as="geometry" />
        </mxCell>
        <mxCell id="AosMxWho9IahaJcilFQE-51" value="S" style="ellipse;whiteSpace=wrap;html=1;aspect=fixed;" vertex="1" parent="1">
          <mxGeometry x="130" y="270" width="20" height="20" as="geometry" />
        </mxCell>
      </root>
    </mxGraphModel>
  </diagram>
</mxfile>
